<?xml version="1.0" encoding="UTF-8" standalone="no"?>
<!-- Created with Inkscape (http://www.inkscape.org/) -->

<svg
   xmlns:dc="http://purl.org/dc/elements/1.1/"
   xmlns:cc="http://creativecommons.org/ns#"
   xmlns:rdf="http://www.w3.org/1999/02/22-rdf-syntax-ns#"
   xmlns:svg="http://www.w3.org/2000/svg"
   xmlns="http://www.w3.org/2000/svg"
   xmlns:sodipodi="http://sodipodi.sourceforge.net/DTD/sodipodi-0.dtd"
   xmlns:inkscape="http://www.inkscape.org/namespaces/inkscape"
   width="200mm"
   height="160mm"
   viewBox="0 0 200 160"
   version="1.1"
   id="svg8"
   inkscape:version="0.92.1 r15371"
   sodipodi:docname="2d.svg">
  <defs
     id="defs2" />
  <sodipodi:namedview
     id="base"
     pagecolor="#ffffff"
     bordercolor="#666666"
     borderopacity="1.0"
     inkscape:pageopacity="0.0"
     inkscape:pageshadow="2"
     inkscape:zoom="0.5"
     inkscape:cx="63.737155"
     inkscape:cy="203.44578"
     inkscape:document-units="mm"
     inkscape:current-layer="g873"
     showgrid="true"
     inkscape:window-width="1920"
     inkscape:window-height="1121"
     inkscape:window-x="-9"
     inkscape:window-y="-9"
     inkscape:window-maximized="1">
    <inkscape:grid
       type="xygrid"
       id="grid4500" />
  </sodipodi:namedview>
  <metadata
     id="metadata5">
    <rdf:RDF>
      <cc:Work
         rdf:about="">
        <dc:format>image/svg+xml</dc:format>
        <dc:type
           rdf:resource="http://purl.org/dc/dcmitype/StillImage" />
        <dc:title></dc:title>
      </cc:Work>
    </rdf:RDF>
  </metadata>
  <g
     inkscape:label="レイヤー 1"
     inkscape:groupmode="layer"
     id="layer1"
     transform="translate(-30.401889,-26.804267)">
    <g
       id="g873"
       transform="translate(-12.828937)"
       style="stroke:#8c8c8c;stroke-opacity:1">
      <path
         style="fill:none;stroke:#a0a0a0;stroke-width:12.43099976;stroke-miterlimit:4;stroke-dasharray:none;stroke-opacity:1"
         d="m 86.620449,110.07527 a 74.560127,72.421974 0 0 0 74.427701,68.78908 74.560127,72.421974 0 0 0 74.37324,-68.78908 h -1.74873 a 73.513878,21.166666 0 0 1 -72.58937,17.99166 73.513878,21.166666 0 0 1 -72.622127,-17.99166 z"
         id="path10-7"
         inkscape:connector-curvature="0" />
      <path
         style="fill:#a0a0a0;fill-opacity:1;stroke:#a0a0a0;stroke-width:11.76500034;stroke-miterlimit:4;stroke-dasharray:none;stroke-opacity:1"
         d="m 234.71911,109.5461 a 74.611457,21.166666 0 0 1 -41.87393,15.93236 96.90093,96.90093 0 0 1 -75.03222,35.85104 69.547623,69.547623 0 0 0 47.71037,19.06292 69.547623,69.547623 0 0 0 69.54718,-69.54769 69.547623,69.547623 0 0 0 -0.0662,-1.29863 z"
         id="path10-2"
         inkscape:connector-curvature="0" />
      <g
         aria-label="3D"
         transform="matrix(0.90390611,0,0,1.1063096,63.191067,-10.819719)"
         style="font-style:normal;font-weight:normal;font-size:52.31236267px;line-height:1.25;font-family:sans-serif;letter-spacing:0px;word-spacing:0px;fill:#8c8c8c;fill-opacity:1;stroke:#646464;stroke-width:1.30780911;stroke-opacity:1"
         id="text879">
        <g
           aria-label="2D"
           transform="matrix(0.6584685,0,0,0.23915849,626.45336,77.117534)"
           style="font-style:italic;font-variant:normal;font-weight:bold;font-stretch:normal;font-size:8px;line-height:125%;font-family:sans-serif;-inkscape-font-specification:'sans-serif Bold Italic';letter-spacing:0px;word-spacing:0px;fill:#a0a0a0;fill-opacity:1;stroke:#646464;stroke-width:0.66673326px;stroke-linecap:butt;stroke-linejoin:miter;stroke-opacity:1"
           id="flowRoot4488">
          <path
             d="m -832.89062,108.51758 h 30.42187 l -2.57812,13.26562 h -50.8125 l 2.625,-13.35937 29.76562,-22.453127 q 4.875,-3.75 7.40625,-7.59375 2.57813,-3.84375 2.57813,-7.453125 0,-3.84375 -2.625,-5.953125 -2.625,-2.109375 -7.35938,-2.109375 -4.45312,0 -9.9375,1.78125 -5.48437,1.734375 -12.375,5.390625 l 3,-14.859375 q 6.375,-2.34375 12.51563,-3.46875 6.14062,-1.171875 12.14062,-1.171875 10.6875,0 16.82813,4.640625 6.14062,4.59375 6.14062,12.5625 0,6.84375 -3.75,12.46875 -3.75,5.625 -16.5,15.1875 z"
             style="font-style:italic;font-variant:normal;font-weight:bold;font-stretch:normal;font-size:96px;font-family:sans-serif;-inkscape-font-specification:'sans-serif Bold Italic';fill:#a0a0a0;fill-opacity:1;stroke:#646464;stroke-width:0.32699496px;stroke-opacity:1"
             id="path4579"
             inkscape:connector-curvature="0" />
          <path
             d="m -758.73437,65.439453 -8.39063,42.703127 h 6.46875 q 12.60938,0 19.96875,-7.07813 7.35938,-7.078122 7.35938,-19.124997 0,-8.15625 -4.82813,-12.328125 -4.78125,-4.171875 -14.25,-4.171875 z m -15.46875,-13.640625 h 18.98437 q 13.59375,0 20.39063,1.640625 6.79687,1.59375 11.29687,5.390625 4.54688,3.796875 6.84375,9.234375 2.29688,5.390625 2.29688,12.234375 0,9.515625 -3.9375,17.953125 -3.89063,8.390627 -10.96875,14.109377 -6.1875,5.10937 -14.39063,7.26562 -8.15625,2.15625 -25.125,2.15625 h -19.03125 z"
             style="font-style:italic;font-variant:normal;font-weight:bold;font-stretch:normal;font-size:96px;font-family:sans-serif;-inkscape-font-specification:'sans-serif Bold Italic';fill:#a0a0a0;fill-opacity:1;stroke:#646464;stroke-width:0.32699496px;stroke-opacity:1"
             id="path4581"
             inkscape:connector-curvature="0" />
        </g>
      </g>
      <ellipse
         style="opacity:1;fill:none;fill-opacity:1;fill-rule:evenodd;stroke:#a0a0a0;stroke-width:12.40000057;stroke-linejoin:round;stroke-miterlimit:4;stroke-dasharray:none;stroke-dashoffset:0;stroke-opacity:1"
         id="path4505-0"
         cx="161.31009"
         cy="98.962532"
         rx="74.611458"
         ry="32.279167" />
    </g>
  </g>
</svg>
