solid ascii
	facet normal 0.57735 0.57735 0.57735
	 outer loop
	  vertex 5 5 -14.802
	  vertex -14.802 5 5.0001
	  vertex 5 -14.802 5
	 endloop
	endfacet
	facet normal -0.57735 0.57735 0.57735
	 outer loop
	  vertex 5 -14.802 5
	  vertex 24.802 5 5
	  vertex 5 5 -14.802
	 endloop
	endfacet
	facet normal 0.57735 -0.57735 0.57735
	 outer loop
	  vertex 5 5 -14.802
	  vertex 5 24.802 5
	  vertex -14.802 5 5
	 endloop
	endfacet
	facet normal -0.57735 -0.57735 0.57735
	 outer loop
	  vertex 24.802 5 5
	  vertex 5 24.802 5
	  vertex 5 5 -14.802
	 endloop
	endfacet
	facet normal 0.57735 0.57735 -0.57735
	 outer loop
	  vertex 5 -14.802 5
	  vertex -14.802 5 5
	  vertex 5 5 24.802
	 endloop
	endfacet
	facet normal -0.57735 0.57735 -0.57735
	 outer loop
	  vertex 5 -14.802 5
	  vertex 5 5 24.802
	  vertex 24.802 5 5
	 endloop
	endfacet
	facet normal 0.57735 -0.57735 -0.57735
	 outer loop
	  vertex -14.802 5 5
	  vertex 5 24.802 5
	  vertex 5 5 24.802
	 endloop
	endfacet
	facet normal -0.57735 -0.57735 -0.57735
	 outer loop
	  vertex 24.802 5 5
	  vertex 5 5 24.802
	  vertex 5 24.802 5
	 endloop
	endfacet
	endsolid	
