/* XPM */
static char * roundb_xpm[] = {
/* width height ncolors chars_per_pixel */
"100 100 7 1",
"  s undef_cell c none",
". s void c #ffffff",
"! s undef_bound c #ff0000",
"| s bound c #000000",
"I s omitted c #330099",
"+ s color0 c #0000ff",
"- s color1 c #cc99ff",
"++++++++++++++++++++++++++++++++++++++++++++++++++++++++++++++++++++++++++++++++++++++++++++++++++++",
"++++++++++++++++++++++++++++++++++++++++++++++++++++++++++++++++++++++++++++++++++++++++++++++++++++",
"++++++++++++++++++++++++++++++++++++++++++++++++++++++++++++++++++++++++++++++++++++++++++++++++++++",
"++++++++++++++++++++++++++++++++++++++++++++++++++++++++++++++++++++++++++++++++++++++++++++++++++++",
"++++++++++++++++++++++++++++++++++++++++++++++++++++++++++++++++++++++++++++++++++++++++++++++++++++",
"++++++++++++++++++++++++++++++++++++++++++++++++++++++++++++++++++++++++++++++++++++++++++++++++++++",
"++++++++++++++++++++++++++++++++++++++++++++++++++++++++++++++++++++++++++++++++++++++++++++++++++++",
"++++++++++++++++++++++++++++++++++++++++++++++++++++++++++++++++++++++++++++++++++++++++++++++++++++",
"++++++++++++++++++++++++++++++++++++++++++++++++++++++++++++++++++++++++++++++++++++++++++++++++++++",
"++++++++++++++++++++++++++++++++++++++++++++++++++++++++++++++++++++++++++++++++++++++++++++++++++++",
"++++++++++++++++++++++++++++++++++++++++|||++++++++++++++|||++++++++++++++++++++++++++++++++++++++++",
"++++++++++++++++++++++++++++++++++++|||+|||--------------|||+|||++++++++++++++++++++++++++++++++++++",
"+++++++++++++++++++++++++++++++++||||||-|||--------------|||-||||||+++++++++++++++++++++++++++++++++",
"+++++++++++++++++++++++++++++++||||||||----------------------||||||||+++++++++++++++++++++++++++++++",
"+++++++++++++++++++++++++++++|||||||----------------------------|||||||+++++++++++++++++++++++++++++",
"+++++++++++++++++++++++++++|||||||--------------------------------|||||||+++++++++++++++++++++++++++",
"++++++++++++++++++++++++++||||||------------------------------------||||||++++++++++++++++++++++++++",
"+++++++++++++++++++++++++|||||----------------------------------------||||||++++++++++++++++++++++++",
"+++++++++++++++++++++++||||||------------------------------------------||||||+++++++++++++++++++++++",
"++++++++++++++++++++++||||||---------------------------------------------|||||++++++++++++++++++++++",
"+++++++++++++++++++++|||||------------------------------------------------|||||+++++++++++++++++++++",
"++++++++++++++++++++|||||--------------------------------------------------|||||++++++++++++++++++++",
"+++++++++++++++++++|||||----------------------------------------------------|||||+++++++++++++++++++",
"++++++++++++++++++|||||------------------------------------------------------|||||++++++++++++++++++",
"+++++++++++++++++|||||--------------------------------------------------------|||||+++++++++++++++++",
"+++++++++++++++++||||----------------------------------------------------------|||||++++++++++++++++",
"++++++++++++++++||||------------------------------------------------------------||||++++++++++++++++",
"+++++++++++++++|||||-------------------------------------------------------------||||+++++++++++++++",
"++++++++++++++|||||--------------------------------------------------------------|||||++++++++++++++",
"++++++++++++++||||----------------------------------------------------------------||||++++++++++++++",
"+++++++++++++||||------------------------------------------------------------------||||+++++++++++++",
"+++++++++++++||||------------------------------------------------------------------||||+++++++++++++",
"++++++++++++||||--------------------------------------------------------------------||||++++++++++++",
"++++++++++++||||--------------------------------------------------------------------||||++++++++++++",
"+++++++++++||||----------------------------------------------------------------------||||+++++++++++",
"+++++++++++||||----------------------------------------------------------------------||||+++++++++++",
"+++++++++++|||------------------------------------------------------------------------|||+++++++++++",
"++++++++++||||------------------------------------------------------------------------||||++++++++++",
"++++++++++||||------------------------------------------------------------------------||||++++++++++",
"++++++++++|||--------------------------------------------------------------------------|||++++++++++",
"++++++++++|||--------------------------------------------------------------------------|||++++++++++",
"+++++++++||||--------------------------------------------------------------------------||||+++++++++",
"+++++++++||||--------------------------------------------------------------------------||||+++++++++",
"+++++++++|||----------------------------------------------------------------------------|||+++++++++",
"+++++++++|||----------------------------------------------------------------------------|||+++++++++",
"+++++++++|||----------------------------------------------------------------------------|||+++++++++",
"+++++++++|||----------------------------------------------------------------------------|||+++++++++",
"+++++++++|||----------------------------------------------------------------------------|||+++++++++",
"+++++++++|||----------------------------------------------------------------------------|||+++++++++",
"+++++++++|||----------------------------------------------------------------------------||||++++++++",
"+++++++++|||----------------------------------------------------------------------------||||++++++++",
"+++++++++|||----------------------------------------------------------------------------||||++++++++",
"+++++++++|||----------------------------------------------------------------------------|||+++++++++",
"+++++++++|||----------------------------------------------------------------------------|||+++++++++",
"+++++++++|||----------------------------------------------------------------------------|||+++++++++",
"+++++++++|||----------------------------------------------------------------------------|||+++++++++",
"+++++++++|||----------------------------------------------------------------------------|||+++++++++",
"+++++++++|||----------------------------------------------------------------------------|||+++++++++",
"+++++++++||||--------------------------------------------------------------------------||||+++++++++",
"+++++++++||||--------------------------------------------------------------------------||||+++++++++",
"++++++++++|||--------------------------------------------------------------------------|||++++++++++",
"++++++++++|||--------------------------------------------------------------------------|||++++++++++",
"++++++++++||||------------------------------------------------------------------------||||++++++++++",
"++++++++++||||------------------------------------------------------------------------||||++++++++++",
"+++++++++++|||------------------------------------------------------------------------|||+++++++++++",
"+++++++++++||||----------------------------------------------------------------------||||+++++++++++",
"+++++++++++||||----------------------------------------------------------------------||||+++++++++++",
"++++++++++++||||--------------------------------------------------------------------||||++++++++++++",
"++++++++++++||||--------------------------------------------------------------------||||++++++++++++",
"+++++++++++++||||------------------------------------------------------------------||||+++++++++++++",
"+++++++++++++||||------------------------------------------------------------------||||+++++++++++++",
"++++++++++++++||||----------------------------------------------------------------||||++++++++++++++",
"++++++++++++++|||||--------------------------------------------------------------|||||++++++++++++++",
"+++++++++++++++|||||-------------------------------------------------------------||||+++++++++++++++",
"++++++++++++++++||||------------------------------------------------------------||||++++++++++++++++",
"+++++++++++++++++||||----------------------------------------------------------|||||++++++++++++++++",
"+++++++++++++++++|||||--------------------------------------------------------|||||+++++++++++++++++",
"++++++++++++++++++|||||------------------------------------------------------|||||++++++++++++++++++",
"+++++++++++++++++++|||||----------------------------------------------------|||||+++++++++++++++++++",
"++++++++++++++++++++|||||--------------------------------------------------|||||++++++++++++++++++++",
"+++++++++++++++++++++|||||------------------------------------------------|||||+++++++++++++++++++++",
"++++++++++++++++++++++||||||---------------------------------------------|||||++++++++++++++++++++++",
"+++++++++++++++++++++++||||||------------------------------------------||||||+++++++++++++++++++++++",
"+++++++++++++++++++++++++|||||----------------------------------------||||||++++++++++++++++++++++++",
"++++++++++++++++++++++++++||||||------------------------------------||||||++++++++++++++++++++++++++",
"+++++++++++++++++++++++++++|||||||--------------------------------|||||||+++++++++++++++++++++++++++",
"+++++++++++++++++++++++++++++|||||||----------------------------|||||||+++++++++++++++++++++++++++++",
"+++++++++++++++++++++++++++++++||||||||----------------------||||||||+++++++++++++++++++++++++++++++",
"+++++++++++++++++++++++++++++++++||||||-|||--------------|||-||||||+++++++++++++++++++++++++++++++++",
"++++++++++++++++++++++++++++++++++++|||+|||--------------|||+|||++++++++++++++++++++++++++++++++++++",
"++++++++++++++++++++++++++++++++++++++++|||++++++++++++++|||++++++++++++++++++++++++++++++++++++++++",
"++++++++++++++++++++++++++++++++++++++++++++++++++++++++++++++++++++++++++++++++++++++++++++++++++++",
"++++++++++++++++++++++++++++++++++++++++++++++++++++++++++++++++++++++++++++++++++++++++++++++++++++",
"++++++++++++++++++++++++++++++++++++++++++++++++++++++++++++++++++++++++++++++++++++++++++++++++++++",
"++++++++++++++++++++++++++++++++++++++++++++++++++++++++++++++++++++++++++++++++++++++++++++++++++++",
"++++++++++++++++++++++++++++++++++++++++++++++++++++++++++++++++++++++++++++++++++++++++++++++++++++",
"++++++++++++++++++++++++++++++++++++++++++++++++++++++++++++++++++++++++++++++++++++++++++++++++++++",
"++++++++++++++++++++++++++++++++++++++++++++++++++++++++++++++++++++++++++++++++++++++++++++++++++++",
"++++++++++++++++++++++++++++++++++++++++++++++++++++++++++++++++++++++++++++++++++++++++++++++++++++",
"++++++++++++++++++++++++++++++++++++++++++++++++++++++++++++++++++++++++++++++++++++++++++++++++++++"
};
